<?xml version="1.0" encoding="UTF-8" standalone="no"?><!DOCTYPE svg PUBLIC "-//W3C//DTD SVG 1.1//EN" "http://www.w3.org/Graphics/SVG/1.1/DTD/svg11.dtd"><svg width="100%" height="100%" viewBox="0 0 1205 1382" version="1.1" xmlns="http://www.w3.org/2000/svg" xmlns:xlink="http://www.w3.org/1999/xlink" xml:space="preserve" xmlns:serif="http://www.serif.com/" style="fill-rule:evenodd;clip-rule:evenodd;stroke-linejoin:round;stroke-miterlimit:2;"><g><path d="M1117.76,534.236c0,284.717 -230.808,515.525 -515.525,515.525c-284.716,0 -515.529,-230.808 -515.529,-515.525c0,-284.717 230.813,-515.529 515.529,-515.529c284.717,-0 515.525,230.812 515.525,515.529" style="fill:#c8324c;fill-rule:nonzero;"/><path d="M1204.25,1235.56c-1.717,-23.083 -13.571,-43.971 -34.584,-52.975c-4.366,-3.55 -9.333,-6.529 -14.787,-8.7c-15.234,-6.075 -31.921,-6.508 -48.221,-6.575c-19.138,-0.079 -38.275,-0.121 -57.417,-0.163c-136.571,-0.287 -572.4,0.321 -708.966,1.059l-58.038,0.316c-17.5,-1.233 -35.004,-2.462 -52.504,-3.691c-29.617,-2.084 -59.504,-5.171 -89.225,-3.367c-14.958,0.904 -29.704,3.763 -44.667,4.571c-14.121,0.762 -28.233,-2.475 -42.246,0.029c-6.804,1.217 -12.3,3.579 -16.687,6.783c-2.521,1.296 -4.95,2.796 -7.254,4.542c-27.921,21.154 -30.896,64.783 -29.309,95.904c0.105,2.038 0.509,3.888 1.121,5.579c0.384,12.621 0.721,25.255 1.375,37.859c0.684,13.187 2.65,26.996 10.892,38.012c9.229,12.342 22.862,16.813 38.108,18.392c15.75,1.629 31.679,2.304 47.492,3.133c31.612,1.65 63.262,2.454 94.921,2.7c64.483,0.504 128.979,-0.896 193.45,-1.791c42.333,-0.592 84.687,-1.009 127.046,-1.546c47.354,3.871 394.129,5.871 441.67,5.871c31.796,0.004 63.592,-0.855 95.338,-2.584c15.533,-0.846 31.658,-1.025 47.012,-3.587c14.53,1.587 29.055,2.087 43.355,-0.138c29.629,-4.612 52.895,-25.154 57.491,-53.625c2.213,-13.708 1.159,-27.35 1.638,-41.137c0.516,-14.975 4.112,-29.854 2.996,-44.871" style="fill:#c8324c;fill-rule:nonzero;"/><path d="M831.103,844.147c5.033,6.175 22.654,37.041 42.792,43.216c20.133,6.175 44.533,18.384 67.566,23.596c23.038,5.217 154.775,106.95 154.775,125.471c0,18.525 -317.262,5.779 -357.533,16.071c-40.267,10.291 -289.233,12.05 -289.233,12.05c-0,-0 -189.696,-41.363 -202.28,-55.767c-12.587,-14.408 -148.495,12.346 -138.429,-4.117c10.067,-16.462 151.013,-142 151.013,-142c52.854,-51.445 128.358,-76.141 128.358,-76.141c0,-0 83.058,-22.638 100.679,-30.871c17.617,-8.233 110.742,-34.988 110.742,-34.988c-0,0 47.817,4.117 57.887,24.696c10.067,20.579 168.63,92.609 173.663,98.784" style="fill:#fff;fill-rule:nonzero;"/><path d="M724.373,16.829c-0,0 22.575,17.342 43.495,12.4c0,0 92.663,-8.55 114.688,29.054l46.304,59.821c0,0 18.396,27.213 52.192,28.292c-0,-0 4.083,0.925 11.941,-1.921c0,-0 6.25,-3.113 5.984,1.329c-0,0 2.025,3.188 -12.3,17.846c-14.813,15.158 -36.371,35.317 -61.646,40.275c-0,-0 11.121,35.371 36.233,53.35c0,-0 4.754,2.708 7.95,3.121c0,-0 10.296,0.191 -2.162,8.258l-9.817,4.967c-24.137,12.808 -72.375,29.05 -117.525,-11.684c0,0 -22.879,-25.341 -57.683,-58.787c-0,-0 -41.175,-30.842 -73.329,-12.488" style="fill:#fff;fill-rule:nonzero;"/><path d="M969.213,260.394c-3.195,-0.412 -7.95,-3.121 -7.95,-3.121c-25.112,-17.979 -36.233,-53.35 -36.233,-53.35c25.275,-4.958 46.838,-25.116 61.646,-40.275c14.325,-14.654 12.304,-17.846 12.304,-17.846c0.263,-4.437 -5.987,-1.325 -5.987,-1.325c-7.859,2.846 -11.942,1.917 -11.942,1.917c-10.85,-0.346 -20.108,-3.387 -27.688,-7.354c-6.333,3.9 -13.566,8.3 -21.145,12.804c-23.688,14.083 -38.338,11.296 -47.33,20.575c-8.991,9.275 27.425,50.413 17.438,69.392c-9.988,18.979 -70.842,-29.984 -80.958,-39.617c-10.125,-9.629 -48.609,-47.254 -74.55,-53.854c-15.605,-3.971 -27.825,2.758 -35.092,8.754l-3.025,33.567c32.15,-18.35 73.325,12.491 73.325,12.491c34.808,33.446 57.683,58.784 57.683,58.784c45.15,40.733 93.388,24.496 117.525,11.683l9.817,-4.967c12.462,-8.066 2.162,-8.258 2.162,-8.258" style="fill:#f9efe3;fill-rule:nonzero;"/><path d="M694.295,568.436l32.579,-562.337l-13.192,-0.771l-25.967,562.708c0,0 -0.441,3.779 2.684,4.463c-0,-0 3.075,1.187 3.896,-4.063" style="fill:#010b50;fill-rule:nonzero;"/><path d="M730.464,7.576c0.046,4.254 -5.15,7.758 -11.608,7.829c-6.458,0.071 -11.729,-3.321 -11.775,-7.575c-0.046,-4.254 5.15,-7.758 11.608,-7.829c6.459,-0.071 11.725,3.321 11.775,7.575" style="fill:#010b50;fill-rule:nonzero;"/><path d="M261.83,193.477c0,-0 30.067,-1.575 43.492,-19.925c-0,-0 68.616,-70.563 112.171,-55.463l78.341,16.267c0,0 33.492,9.238 61.4,-13.125c0,0 3.921,-2.058 8.284,-9.75c-0,0 2.887,-6.796 5.72,-3.046c0,0 3.825,1.175 2.384,22.8c-1.496,22.367 -4.975,53.392 -21.884,74.746c0,0 33.25,20.796 65.796,17.992c0,-0 5.688,-1.092 8.534,-2.954c-0,-0 8.412,-6.925 3.941,8.125l-4.479,10.741c-10.6,26.884 -38.221,73.096 -102.517,71.379c0,0 -35.808,-4.65 -86.779,-7.616c0,-0 -54.296,3.5 -67.533,40.354" style="fill:#fff;fill-rule:nonzero;"/><path d="M626.065,221.019c-2.845,1.863 -8.533,2.954 -8.533,2.954c-32.546,2.804 -65.796,-17.991 -65.796,-17.991c16.909,-21.355 20.392,-52.38 21.884,-74.746c1.441,-21.625 -2.38,-22.8 -2.38,-22.8c-2.837,-3.75 -5.72,3.046 -5.72,3.046c-4.363,7.687 -8.284,9.75 -8.284,9.75c-8.958,7.179 -18.496,11.095 -27.312,13.112c-2.413,7.496 -5.204,16 -8.2,24.833c-9.367,27.6 -23.059,35.43 -23.913,49.067c-0.858,13.638 56.696,21.679 61.709,43.804c5.012,22.121 -77.555,24.579 -92.313,23.796c-14.754,-0.787 -71.554,-4.587 -96.95,7.938c-15.275,7.529 -20.471,21.337 -22.192,31.15l20.638,29.07c13.237,-36.854 67.533,-40.354 67.533,-40.354c50.971,2.967 86.775,7.617 86.775,7.617c64.296,1.717 91.917,-44.496 102.517,-71.379l4.479,-10.742c4.475,-15.05 -3.942,-8.125 -3.942,-8.125" style="fill:#f9efe3;fill-rule:nonzero;"/><path d="M258.042,834.455c-0,-0 -12.325,15.7 -4.175,26.829c-0,0 16.212,13.613 17.337,15.758c1.125,2.15 13.379,17.73 24.85,15.955c0,-0 22.834,-2.317 19.879,-8.659l-14.52,-10.796c-0,0 -14.346,-22.537 -17.313,-33.108" style="fill:#8b1a38;fill-rule:nonzero;"/><path d="M405.606,812.551c0,-0 -11.583,18.746 2.917,25.308c-0,0 21.058,6.992 27.254,11.742c0,-0 20.496,12.975 36.538,2.625c-0,-0 8.375,-7.884 -1.73,-11.279c0,-0 -15.695,-5.667 -31.65,-29.025" style="fill:#8b1a38;fill-rule:nonzero;"/><path d="M267.61,700.227c0,-0 -13.912,32.42 -15.658,37.683c-1.75,5.267 -2.975,17.667 0.254,45.925c-0,-0 4.396,45.525 3.933,51.083c0,0 19.463,10.4 32.159,10.346c-0,0 -0.159,-28.462 0.291,-31.6c0.45,-3.133 12.238,-70.071 14.154,-79.612c1.921,-9.542 16.238,-54.425 16.238,-54.425l-51.371,20.6Z" style="fill:#010b50;fill-rule:nonzero;"/><path d="M351.037,677.089c0,0 9.629,24.338 14.083,39.742c0,-0 8.696,21.85 17.871,38.975c0,-0 17.946,44.391 19.917,52.512l0.804,6.259c0,-0 26.483,5.754 38.688,-0.075c-0,-0 -15.971,-36.263 -16.792,-39.65c-0.821,-3.384 -23.217,-113.355 -34.5,-118.505c-11.288,-5.141 -40.071,20.742 -40.071,20.742" style="fill:#010b50;fill-rule:nonzero;"/><path d="M319.248,392.82c-0,-0 12.875,8.171 21.812,21.729c0,0 27.292,40.975 33.192,40.35c5.9,-0.625 4.279,-13.946 4.279,-13.946c0,0 0.267,-25.479 3.246,-29.833c0,-0 18.196,8.492 23.033,10.142c0,-0 -2.687,45.429 -15.437,61.029c-12.754,15.6 -51.042,-15.846 -51.042,-15.846l-32.854,-62.217l13.771,-11.408Z" style="fill:#f9efe3;fill-rule:nonzero;"/><path d="M262.66,346.654c0,0 1.225,8.375 -6.8,14.358c-8.029,5.984 -24.925,19.35 -46.946,24.305c-22.566,5.075 -29.516,20.475 -28.037,26.57c1.479,6.096 -3.425,28.263 20.891,31.234c24.321,2.971 64.763,-9.067 71.013,-19.054c6.246,-9.988 17.833,-22.08 18.271,-23.596c0.437,-1.517 5.612,-14.271 5.858,-15.742c0.25,-1.475 20.267,-43.646 20.267,-43.646l6.087,-21.446c0,0 -2.475,-6.054 -3.287,-6.058c-0.804,-0.004 -30.446,-3.296 -30.446,-3.296c-0,0 -22.654,-3.579 -26.871,36.371" style="fill:#010b50;fill-rule:nonzero;"/><path d="M328.727,365.609c-0,0 -8.096,31.463 -6.013,40.034c2.079,8.571 -30.05,-11.613 -30.291,-12.613c-0.242,-1 -1.821,-20.587 -2.2,-22.158c-0.384,-1.571 -0.096,-22.817 -0.096,-22.817l10.571,-13.158" style="fill:#60422b;fill-rule:nonzero;"/><path d="M308.17,316.446c0,-0 3.179,-6.017 9.204,-4.454c0,-0 9.884,0.829 13.309,14.116c-0,0 0.616,7.513 3.595,9.817l5.913,4.412c-0,0 1.417,0.867 0.692,2.859l-2.396,2.596c-0,-0 3.9,13.579 2.541,17.941c0,0 0.409,2.521 -10.637,5.204c-0,0 -15.9,3.455 -23.617,-0.925l-6.037,-7.408c-0,0 -9.975,-1.208 -8.834,-8.142c0,0 -0.229,-0.95 6.475,-1.57c0,-0 6.3,-3.142 6.867,-9.938c0.571,-6.792 4.075,-12.283 3.529,-15.375c-0.55,-3.096 -0.604,-9.133 -0.604,-9.133" style="fill:#724d2f;fill-rule:nonzero;"/><path d="M315.486,304.837c-0,-0 -27.575,-8.284 -41.796,12.262l14.008,67.267c-2.279,1.287 -3.562,3.904 -1.579,6.637c0.746,1.029 1.4,1.992 1.913,2.934c-0.009,0.012 -0.017,0.029 -0.025,0.045c-0.204,0.042 -0.421,0.084 -0.671,0.121c-2.833,0.438 -4.004,2.509 -3.938,4.688c-1.533,1.129 -3.154,2.171 -4.625,3.321c-3.85,3.02 -7.35,6.391 -10.62,10.02c-1.813,2.017 -1.73,4.45 -0.684,6.325c-2.975,1.438 -6.125,2.509 -9.533,3.021c-6.729,1.013 -4.192,11.292 2.5,10.284c11.721,-1.763 22.45,-9.45 30.829,-17.542c5.538,-5.346 8.713,-11.021 8.463,-17.075c0.587,-1.071 0.77,-2.479 0.245,-4.35c-2.295,-8.217 -2.479,-16.038 -2.687,-16.892c-0.208,-0.858 -0.688,-10.321 -0.688,-10.321l-2.833,-7.52c0,-0 -4.387,-4.988 -0.312,-6.28l7.958,-0.87c-0,-0 1.408,2.079 2.475,2.725c1.067,0.65 1.571,-0.38 1.617,-2.055c0.05,-1.675 -0.475,-3.212 -0.325,-4.458c0.15,-1.25 0.691,-7.129 1.166,-8.908c0.475,-1.779 2.154,-7.329 2.738,-9.288c0.587,-1.954 -0.921,-5.675 0.637,-9.833c1.563,-4.163 7.375,-4.513 11.5,-3.096c4.129,1.421 5.484,1.392 5.384,0.358c-0,0 8,-6.933 -11.117,-11.52" style="fill:#010b50;fill-rule:nonzero;"/><path d="M383.654,414.7l2.667,-14.767c-0,0 1.458,-11.446 0.537,-16.062c-0.916,-4.621 0.317,-11.171 0.317,-11.171c0,-0 8.225,-7.646 16.154,0.917c7.929,8.566 7.375,12.933 7.375,12.933c0,-0 -4.471,13.996 -5.304,18.029c-0.833,4.038 -2.096,14.629 -2.483,15.529c-0.388,0.9 -1.313,4.554 -1.313,4.554" style="fill:#724d2f;fill-rule:nonzero;"/><path d="M541.115,562.777l-289.85,-396.746l-12.117,9.191l295.908,392.121c0,0 2.442,3.638 5.688,1.9c-0,0 3.575,-1.262 0.371,-6.466" style="fill:#010b50;fill-rule:nonzero;"/><path d="M431.245,470.989c0.6,-0.146 8.588,-0.392 9.85,-3.025c0,-0 8.088,-22.5 12.884,-22.817c-0,-0 8.741,-1.488 10.966,1.571c0,-0 1.98,2.058 2.767,3.562c0.792,1.5 4.146,-0.371 3.967,4.117c-0.179,4.492 2.375,2.812 2.504,5.958c0.125,3.142 0.25,7.138 -0.404,7.929c-0.654,0.796 -0.238,-1.845 -3.684,-1.22c-3.445,0.625 -5.833,6.495 -8.195,8.975c-2.363,2.479 -8.48,6.929 -26.667,10.495" style="fill:#724d2f;fill-rule:nonzero;"/><path d="M392.419,384.335c-0,-0 -6.009,-3.988 -6.559,-7.079c-0.55,-3.096 0.088,-6.275 0.763,-7.65c0.675,-1.375 7.371,-7.034 9.646,-5.971c2.275,1.062 3.254,3.446 5.996,5.604c2.741,2.158 4.362,2.167 5.295,4.363c0.938,2.191 4.43,5.779 4.513,7.779c0.079,1.996 -2.35,2.787 -4.646,4.958c-2.296,2.171 -1.742,4.458 -5.262,4.908c-3.521,0.45 -2.771,1.884 -4.659,-0.079c-1.887,-1.962 -5.087,-6.833 -5.087,-6.833" style="fill:#724d2f;fill-rule:nonzero;"/><path d="M255.509,164.643c3.216,3.687 1.296,10.637 -4.3,15.525c-5.596,4.887 -12.738,5.866 -15.959,2.179c-3.22,-3.683 -1.295,-10.633 4.296,-15.525c5.596,-4.888 12.742,-5.863 15.963,-2.179" style="fill:#010b50;fill-rule:nonzero;"/><path d="M396.475,656.541c0,-0 -49.175,-76.704 -50.287,-81.275c-1.108,-4.575 -5.046,-33.267 -6.142,-40.263c-1.091,-6.991 5.913,-30.479 5.913,-30.479c-0,0 15.416,-43.675 3.446,-65.575c-0,0 -18.471,-31.217 -25.434,-34.971c-6.962,-3.758 -29.283,-20.929 -35.525,-11.75c0,0 -17.646,22.034 -19.429,32.954c0,0 -6.117,18.021 2.479,40.138c0,-0 8.413,21.354 6.259,30.754l-21.1,54.333c-0,0 -14.296,25.859 -1.271,81.996c-0,0 8.308,56.671 4.629,73.904c-0,0 108.183,-22.933 128.187,-38.983c0,0 10.321,-7.346 8.275,-10.783" style="fill:#fff;fill-rule:nonzero;"/><path d="M301.238,412.52c0,-0 40.171,48.333 52.259,53.267c12.087,4.933 17.183,10.954 34.604,7.937c17.417,-3.017 44.1,-5.258 44.1,-5.258c-0,-0 7.346,10.316 3.679,25.125c0,-0 -50.1,12.158 -73.758,9.062c-1.225,-0.158 -2.379,-0.362 -3.45,-0.608c-0,-0 -15.504,-6.525 -37.621,-25.358c-0,-0 -28.404,-17.305 -33.083,-21.617c-4.675,-4.313 -14.675,-23.063 -10.78,-29.45c3.896,-6.392 12.967,-18.879 24.05,-13.1" style="fill:#f9efe3;fill-rule:nonzero;"/><path d="M918.11,903.988c0,0 15.971,13.175 15.988,19.229c0.021,6.063 -38.258,28.696 -39.65,28.809c-1.388,0.112 -22.267,12.966 -26.029,6.741c-0,0 20.716,-44.07 21.491,-46c0.784,-1.925 28.2,-8.779 28.2,-8.779" style="fill:#8b1a38;fill-rule:nonzero;"/><path d="M770.275,827.239c0,0 4.442,20.621 -0.929,23.384c-5.375,2.758 -42.054,-12.954 -43.521,-13.771c-1.462,-0.817 -24.804,-12.933 -24.804,-12.933c-0,-0 1.979,-4.355 11.633,-6.059c9.654,-1.704 27.646,-4.075 28.996,-4.646" style="fill:#8b1a38;fill-rule:nonzero;"/><path d="M904.251,820.959c-8.196,-41.296 -10.058,-38.35 -14.841,-45.658c-4.775,-7.313 -9.084,-17.454 -9.084,-17.454l8.875,-90.209c5.834,-31.929 1.667,-49.075 1.667,-49.075c-6.167,-24.679 -101.767,-31.025 -101.767,-31.025l-67.158,60.034c-0.238,0.379 -0.508,0.75 -0.871,1.091c-5.25,4.934 -8.621,10.579 -10.646,17.246c-0.496,5.05 -0.337,10.167 -0.104,15.242l24.883,133.046c6.388,9.975 39.875,17.787 39.875,17.787l1.48,-77.729c-1.584,-28.542 -6.588,-38.629 -7.667,-43.438c-1.083,-4.808 -14.254,-29.625 -14.254,-29.625l66.891,-46.6l7.655,130.017c0.308,0.508 0.525,1.075 0.633,1.683c0.267,1.53 0.537,3.055 0.808,4.584l56.388,149.35c8.616,2.808 33.904,-13.2 33.904,-13.2l-16.667,-86.067Z" style="fill-rule:nonzero;"/><path d="M990.393,542.784c-0,0 -41.405,-98.075 -47.513,-104.579c-6.117,-6.5 -50.471,-36.521 -50.471,-36.521c-10.441,-8.25 -4.608,-22.704 -4.608,-22.704l-7.671,-8.475l-5.754,24.234l-23.479,-5.117c-13.813,-6.588 -38.492,-0.417 -38.492,-0.417c-25.012,1.996 -47.187,4.471 -50.133,2.609c-2.946,-1.863 -41.238,-43.55 -41.238,-43.55c-4.337,-1.75 -24.625,24.341 -24.625,24.341l45.104,48.138c9.113,9.058 15.755,13.421 15.755,13.421l49.633,8.62c-4.617,12.255 -14.154,94.125 -14.238,101.821c-0.083,7.696 -23.4,57.109 -23.4,57.109c33.388,24.45 109.767,22.645 127.396,21.875l0.013,-0.017c1.4,-1.313 2.366,-2.879 3.025,-4.571c-7.263,-55.683 20.691,-120.962 20.691,-120.962l26.4,32.85l-45.633,41.404c-0.137,7.004 9,25.15 9,25.15l68.033,-41.096c14.034,-8.117 12.205,-13.563 12.205,-13.563" style="fill:#cb304a;fill-rule:nonzero;"/><path d="M894.355,384.553c0,-0 -5.783,7.608 -2.483,15.991c0,0 -2.896,10.759 -20.262,9.892c-0,0 -16.025,-2.854 -15.884,-15.275c0,0 6.725,-0.537 8.604,-5.2l8.342,-17.962c0,-0 16.767,-6.605 21.683,12.554" style="fill:#5b3a22;fill-rule:nonzero;"/><path d="M911.263,356.129c-0,-0 7.308,-16.755 -0.209,-21.417c-7.516,-4.663 -20.671,-9.254 -26.737,-9.896c-6.067,-0.642 -18.217,2.583 -21.25,6.963c-3.038,4.379 -9.792,23.345 -12.796,28.095c-0,0 -5.217,14.705 -0.942,21.134c0,-0 15.409,9.296 28.363,6.758c-0,0 22.808,-6.337 26.187,-11.117c3.375,-4.783 7.384,-20.52 7.384,-20.52" style="fill:#724d2f;fill-rule:nonzero;"/><path d="M894.885,339.389c-0,-0 -15.113,3.841 -21.075,-0.196c-5.963,-4.038 -14.646,-4.471 -15.784,-9.267c-1.133,-4.8 -2.629,-14.079 -2.629,-14.079c0,-0 3.871,6.083 10.596,5.546c6.729,-0.538 26.067,-3.213 29.55,-1.988c3.479,1.229 16.004,7.371 17.362,10.271c1.363,2.9 5.021,6.367 5.875,12.317c0.85,5.946 -0.362,14.316 -0.362,14.316c-0,0 -6.933,16.721 -9.396,18.8c-2.467,2.075 -3.217,2.134 -5.996,4.992c-2.779,2.854 -6.562,7.292 -6.562,7.292c-0,-0 -8.263,-4.604 -4.484,-9.042c3.784,-4.437 5.58,-10.225 5.58,-10.225c-0,0 -0.196,-7.125 -0.992,-12.329c-0.788,-5.2 -2.013,-11.117 -1.763,-12.642c0.259,-1.525 0.08,-3.766 0.08,-3.766" style="fill-rule:nonzero;"/><path d="M901.338,574.608c-0,-0 -8.288,-7.496 -9.825,-9.238c-1.542,-1.741 -3.742,-5.65 -13.392,-0.258l-14.716,7.687c-0,0 3.412,3.3 5.341,3.775c1.929,0.475 -0.921,4.275 2.067,4.875c2.992,0.6 2.475,-0.616 4.917,1.08c2.445,1.695 1.662,2.387 5.62,4.591c3.955,2.204 2.813,6.288 9.667,5.317c6.854,-0.967 18.267,-2.721 18.267,-2.721" style="fill:#724d2f;fill-rule:nonzero;"/><path d="M719.189,351.44l-2.071,-14.283c-0,-0 -0.792,-12.759 -12.888,-12.488c-12.095,0.267 -15.216,-0.883 -16.42,1.546c-1.205,2.425 -3.18,9.808 -4.346,12.7c-1.167,2.887 -2.584,-0.263 -1.179,5.687c1.404,5.946 3.12,12.8 7.475,14.784c4.35,1.983 11.67,6.058 11.67,6.058l7.717,0.317l9.271,-9.367" style="fill:#724d2f;fill-rule:nonzero;"/><path d="M904.251,820.959c-8.196,-41.296 -10.058,-38.35 -14.841,-45.658c-4.775,-7.313 -9.084,-17.454 -9.084,-17.454l8.875,-90.209c5.834,-31.929 1.667,-49.075 1.667,-49.075c-6.167,-24.679 -101.767,-31.025 -101.767,-31.025l-67.158,60.034c-0.238,0.379 -0.508,0.75 -0.871,1.091c-5.25,4.934 -8.621,10.579 -10.646,17.246c-0.496,5.05 -0.337,10.167 -0.104,15.242l24.883,133.046c6.388,9.975 39.875,17.787 39.875,17.787l1.48,-77.729c-1.584,-28.542 -6.588,-38.629 -7.667,-43.438c-1.083,-4.808 -14.254,-29.625 -14.254,-29.625l66.891,-46.6l7.655,130.017c0.308,0.508 0.525,1.075 0.633,1.683c0.267,1.53 0.537,3.055 0.808,4.584l56.388,149.35c8.616,2.808 33.904,-13.2 33.904,-13.2l-16.667,-86.067Z" style="fill:#010b50;fill-rule:nonzero;"/><path d="M990.393,542.784c-0,0 -41.405,-98.075 -47.513,-104.579c-6.117,-6.5 -50.471,-36.521 -50.471,-36.521c-10.441,-8.25 -4.608,-22.704 -4.608,-22.704l-7.671,-8.475l-5.754,24.234l-23.479,-5.117c-13.813,-6.588 -38.492,-0.417 -38.492,-0.417c-25.012,1.996 -47.187,4.471 -50.133,2.609c-2.946,-1.863 -41.238,-43.55 -41.238,-43.55c-4.337,-1.75 -24.625,24.341 -24.625,24.341l45.104,48.138c9.113,9.058 15.755,13.421 15.755,13.421l49.633,8.62c-4.617,12.255 -14.154,94.125 -14.238,101.821c-0.083,7.696 -23.4,57.109 -23.4,57.109c33.388,24.45 109.767,22.645 127.396,21.875l0.013,-0.017c1.4,-1.313 2.366,-2.879 3.025,-4.571c-7.263,-55.683 20.691,-120.962 20.691,-120.962l26.4,32.85l-45.633,41.404c-0.137,7.004 9,25.15 9,25.15l68.033,-41.096c14.034,-8.117 12.205,-13.563 12.205,-13.563" style="fill:#fff;fill-rule:nonzero;"/><path d="M894.355,384.553c0,-0 -5.783,7.608 -2.483,15.991c0,0 -2.896,10.759 -20.262,9.892c-0,0 -16.025,-2.854 -15.884,-15.275c0,0 6.725,-0.537 8.604,-5.2l8.342,-17.962c0,-0 16.767,-6.605 21.683,12.554" style="fill:#5b3a22;fill-rule:nonzero;"/><path d="M911.263,356.129c-0,-0 7.308,-16.755 -0.209,-21.417c-7.516,-4.663 -20.671,-9.254 -26.737,-9.896c-6.067,-0.642 -18.217,2.583 -21.25,6.963c-3.038,4.379 -9.479,24.275 -12.484,29.029c0,-0 -5.529,13.771 -1.254,20.2c0,-0 7.367,8.604 28.363,6.758c-0,0 22.808,-6.337 26.187,-11.117c3.375,-4.783 7.384,-20.52 7.384,-20.52" style="fill:#724d2f;fill-rule:nonzero;"/><path d="M901.338,574.608c-0,-0 -8.288,-7.496 -9.825,-9.238c-1.542,-1.741 -3.742,-5.65 -13.392,-0.258l-14.716,7.687c-0,0 3.412,3.3 5.341,3.775c1.929,0.475 -0.921,4.275 2.067,4.875c2.992,0.6 2.475,-0.616 4.917,1.08c2.445,1.695 1.662,2.387 5.62,4.591c3.955,2.204 2.813,6.288 9.667,5.317c6.854,-0.967 18.267,-2.721 18.267,-2.721" style="fill:#724d2f;fill-rule:nonzero;"/><path d="M719.189,351.44l-2.071,-14.283c-0,-0 -0.792,-12.759 -12.888,-12.488c-12.095,0.267 -15.216,-0.883 -16.42,1.546c-1.205,2.425 -3.18,9.808 -4.346,12.7c-1.167,2.887 -2.584,-0.263 -1.179,5.687c1.404,5.946 3.12,12.8 7.475,14.784c4.35,1.983 11.67,6.058 11.67,6.058l7.717,0.317l9.271,-9.367" style="fill:#724d2f;fill-rule:nonzero;"/><path d="M701.02,823.919c0,0 -5.712,5.071 0.834,7.363c-0,-0 29.133,7.2 34.371,8.837c5.237,1.638 22.587,14.075 30.116,10.8c7.525,-3.27 0,-17.345 0,-17.345" style="fill:#89223b;fill-rule:nonzero;"/><path d="M833.337,608.468l-0.063,0c-0.716,-0.033 -1.279,-0.646 -1.246,-1.366c2.596,-57.738 33.121,-175.846 33.43,-177.034c0.179,-0.696 0.895,-1.129 1.595,-0.937c0.7,0.183 1.117,0.896 0.938,1.596c-0.308,1.183 -30.763,119.029 -33.35,176.491c-0.029,0.7 -0.608,1.25 -1.304,1.25" style="fill:#f9efe3;fill-rule:nonzero;"/><path d="M879.382,429.308c-0.054,-0 -0.104,-0.004 -0.159,-0.009c-15.554,-1.858 -23.691,-8.537 -27.775,-13.812c-4.475,-5.779 -5.195,-11.104 -5.229,-11.329c-0.087,-0.717 0.421,-1.371 1.134,-1.463c0.708,-0.083 1.375,0.413 1.466,1.129c0.104,0.805 2.913,19.517 30.634,22.863c1.129,-0.017 14.929,-0.367 17.925,-7.492c0.283,-0.666 1.045,-0.971 1.712,-0.696c0.671,0.28 0.983,1.046 0.7,1.713c-3.787,8.992 -19.733,9.096 -20.408,9.096" style="fill:#f9efe3;fill-rule:nonzero;"/><path d="M918.42,356.309c-0,-0 1.212,-8.371 0.362,-14.317c-0.692,-4.825 -3.217,-8.008 -4.875,-10.588c-2.025,-7.341 -7.642,-13.937 -14.921,-15.416c-8.954,-1.821 -18.529,0.154 -27.641,-1.088c-3.33,-0.454 -7.921,-2.366 -11.667,-1.866c-0.733,-0.084 -1.463,-0.03 -2.096,0.283c-1.229,0.296 -2.346,1.092 -2.912,2.592c-1.442,3.82 -3.155,11.55 1.287,14.037c0.133,0.075 0.292,0.125 0.433,0.192c1.159,2.15 3.134,3.996 6.43,5.512c3.029,1.392 6.225,2.196 9.504,2.679c0.504,0.28 1.016,0.542 1.487,0.863c5.963,4.037 21.075,0.196 21.075,0.196c0,-0 0.179,2.241 -0.079,3.766c-0.254,1.525 0.971,7.442 1.763,12.642c0.791,5.204 0.987,12.329 0.987,12.329c0,0 -1.792,5.788 -5.579,10.225c-1.588,1.867 -1.042,3.759 0.121,5.325c0.333,2.1 1.679,3.954 3.737,4.921c2.479,1.163 3.921,-0.137 5.459,-2.079c2.645,-3.358 4.012,-7.45 6.866,-10.675c0.034,-0.038 0.059,-0.071 0.088,-0.104c0.237,-0.192 0.491,-0.396 0.771,-0.629c0.795,-0.667 2.05,-2.859 3.391,-5.517c0.171,-0.338 0.35,-0.679 0.513,-1.029c2.679,-5.467 5.496,-12.254 5.496,-12.254" style="fill:#010b50;fill-rule:nonzero;"/><g><path d="M133.03,1301.69l15.567,-0l-0,-52.324l17.776,0l-0,-13.056l-51.119,0l0,13.056l17.776,0l0,52.324Z" style="fill:#fff;fill-rule:nonzero;"/><path d="M174.909,1301.69l15.466,-0l0,-33.443c3.113,-2.812 5.222,-4.519 8.737,-4.519c4.018,-0 5.825,2.109 5.825,9.038l0,28.924l15.567,-0l-0,-30.932c-0,-12.454 -4.62,-20.187 -15.466,-20.187c-6.829,0 -11.65,3.415 -15.366,6.729l0.703,-8.938l0,-16.872l-15.466,-0l0,70.2Z" style="fill:#fff;fill-rule:nonzero;"/><path d="M254.851,1302.89c5.925,-0 12.754,-1.908 17.976,-5.624l-5.021,-9.34c-3.515,2.009 -7.13,3.113 -10.746,3.113c-6.327,0 -11.047,-2.912 -12.453,-9.641l29.426,0c0.301,-1.406 0.602,-4.017 0.602,-6.829c0,-13.558 -7.03,-24.003 -21.492,-24.003c-11.951,0 -23.601,9.943 -23.601,26.112c0,16.671 11.048,26.212 25.309,26.212Zm-10.445,-31.936c1.004,-5.825 4.72,-8.637 9.139,-8.637c5.624,-0 7.834,3.715 7.834,8.637l-16.973,-0Z" style="fill:#fff;fill-rule:nonzero;"/><path d="M306.163,1301.69l15.667,-0l0,-21.693l7.733,0c13.759,0 25.71,-6.829 25.71,-22.496c-0,-16.069 -11.75,-21.191 -26.112,-21.191l-22.998,0l0,65.38Zm15.667,-34.046l0,-18.981l6.428,0c7.632,0 11.75,2.31 11.75,8.838c-0,6.528 -3.616,10.143 -11.349,10.143l-6.829,0Z" style="fill:#fff;fill-rule:nonzero;"/><path d="M386.205,1302.89c5.926,-0 12.755,-1.908 17.977,-5.624l-5.021,-9.34c-3.515,2.009 -7.131,3.113 -10.746,3.113c-6.327,0 -11.048,-2.912 -12.454,-9.641l29.426,0c0.301,-1.406 0.603,-4.017 0.603,-6.829c-0,-13.558 -7.03,-24.003 -21.492,-24.003c-11.951,0 -23.601,9.943 -23.601,26.112c0,16.671 11.047,26.212 25.308,26.212Zm-10.444,-31.936c1.004,-5.825 4.72,-8.637 9.139,-8.637c5.624,-0 7.833,3.715 7.833,8.637l-16.972,-0Z" style="fill:#fff;fill-rule:nonzero;"/><path d="M415.588,1301.69l15.466,-0l-0,-28.522c2.611,-6.628 7.13,-9.039 10.846,-9.039c2.21,0 3.314,0.201 5.122,0.603l2.913,-13.156c-1.406,-0.703 -3.114,-1.005 -6.026,-1.005c-5.022,0 -10.545,3.114 -14.161,9.842l-0.401,0l-1.105,-8.636l-12.654,-0l-0,49.913Z" style="fill:#fff;fill-rule:nonzero;"/><path d="M455.917,1301.69l15.466,-0l0,-49.913l-15.466,-0l0,49.913Zm7.733,-56.943c5.122,-0 8.738,-3.114 8.738,-8.035c-0,-4.82 -3.616,-7.934 -8.738,-7.934c-5.121,0 -8.737,3.114 -8.737,7.934c0,4.921 3.616,8.035 8.737,8.035Z" style="fill:#fff;fill-rule:nonzero;"/><path d="M505.285,1302.89c12.755,-0 24.505,-9.641 24.505,-26.212c0,-16.571 -11.75,-26.112 -24.505,-26.112c-12.654,0 -24.404,9.541 -24.404,26.112c0,16.571 11.75,26.212 24.404,26.212Zm0,-12.554c-5.824,0 -8.536,-5.322 -8.536,-13.658c-0,-8.235 2.712,-13.658 8.536,-13.658c5.825,-0 8.537,5.423 8.537,13.658c-0,8.336 -2.712,13.658 -8.537,13.658Z" style="fill:#fff;fill-rule:nonzero;"/><path d="M557.164,1302.89c4.72,-0 9.642,-2.511 13.157,-6.026l0.301,0l1.105,4.821l12.754,-0l0,-70.2l-15.566,-0l-0,16.772l0.502,7.431c-3.214,-3.113 -6.528,-5.122 -12.052,-5.122c-10.344,0 -20.588,9.842 -20.588,26.112c0,16.27 8.035,26.212 20.387,26.212Zm4.118,-12.755c-5.323,0 -8.537,-4.017 -8.537,-13.557c0,-9.34 3.917,-13.358 8.336,-13.358c2.511,0 5.423,0.804 7.834,2.913l-0,19.885c-2.31,3.113 -4.62,4.117 -7.633,4.117Z" style="fill:#fff;fill-rule:nonzero;"/><path d="M618.532,1301.69l15.667,-0l0,-25.007l22.295,-0l0,-13.056l-22.295,0l0,-14.261l26.112,0l-0,-13.056l-41.779,0l0,65.38Z" style="fill:#fff;fill-rule:nonzero;"/><path d="M690.597,1302.89c5.926,-0 12.755,-1.908 17.977,-5.624l-5.021,-9.34c-3.515,2.009 -7.131,3.113 -10.746,3.113c-6.327,0 -11.048,-2.912 -12.454,-9.641l29.426,0c0.301,-1.406 0.603,-4.017 0.603,-6.829c-0,-13.558 -7.03,-24.003 -21.492,-24.003c-11.951,0 -23.601,9.943 -23.601,26.112c0,16.671 11.047,26.212 25.308,26.212Zm-10.444,-31.936c1.004,-5.825 4.72,-8.637 9.139,-8.637c5.624,-0 7.833,3.715 7.833,8.637l-16.972,-0Z" style="fill:#fff;fill-rule:nonzero;"/><path d="M734.14,1302.89c3.415,-0 6.026,-0.603 7.733,-1.306l-1.807,-11.449c-0.804,0.201 -1.205,0.201 -1.808,0.201c-1.205,0 -2.812,-1.004 -2.812,-4.218l0,-54.633l-15.466,-0l-0,54.031c-0,10.444 3.515,17.374 14.16,17.374Z" style="fill:#fff;fill-rule:nonzero;"/><path d="M762.921,1302.89c3.414,-0 6.025,-0.603 7.733,-1.306l-1.808,-11.449c-0.804,0.201 -1.205,0.201 -1.808,0.201c-1.205,0 -2.812,-1.004 -2.812,-4.218l0,-54.633l-15.466,-0l0,54.031c0,10.444 3.515,17.374 14.161,17.374Z" style="fill:#fff;fill-rule:nonzero;"/><path d="M799.132,1302.89c12.755,-0 24.505,-9.641 24.505,-26.212c0,-16.571 -11.75,-26.112 -24.505,-26.112c-12.654,0 -24.404,9.541 -24.404,26.112c0,16.571 11.75,26.212 24.404,26.212Zm0,-12.554c-5.824,0 -8.536,-5.322 -8.536,-13.658c-0,-8.235 2.712,-13.658 8.536,-13.658c5.825,-0 8.537,5.423 8.537,13.658c-0,8.336 -2.712,13.658 -8.537,13.658Z" style="fill:#fff;fill-rule:nonzero;"/><path d="M840.667,1301.69l17.977,-0l3.917,-19.182c0.904,-4.62 1.506,-9.039 2.31,-14.763l0.401,-0c0.804,5.724 1.607,10.143 2.511,14.763l4.017,19.182l18.479,-0l11.75,-49.913l-14.361,-0l-4.419,22.496c-0.904,4.82 -1.306,9.641 -2.209,15.064l-0.402,0c-0.904,-5.423 -1.808,-10.244 -2.913,-15.064l-5.322,-22.496l-13.759,-0l-5.122,22.496c-1.105,4.72 -1.908,9.641 -2.812,15.064l-0.402,0c-0.703,-5.423 -1.305,-10.244 -2.109,-15.064l-4.519,-22.496l-15.366,-0l12.353,49.913Z" style="fill:#fff;fill-rule:nonzero;"/><path d="M925.386,1302.89c13.558,-0 20.789,-7.13 20.789,-16.27c0,-8.235 -6.026,-12.754 -13.658,-15.164c-6.327,-2.009 -9.139,-3.214 -9.139,-5.825c-0,-2.21 1.707,-3.616 5.322,-3.616c3.415,0 7.131,1.005 10.746,3.616l6.629,-8.738c-4.319,-3.615 -10.545,-6.327 -17.877,-6.327c-11.649,0 -19.282,6.327 -19.282,15.768c-0,7.733 6.026,12.252 13.156,14.863c5.323,2.009 9.541,3.314 9.541,6.327c-0,2.411 -1.707,3.917 -5.925,3.917c-3.917,0 -8.436,-1.205 -13.056,-4.821l-6.528,8.738c5.021,4.921 12.654,7.532 19.282,7.532Z" style="fill:#fff;fill-rule:nonzero;"/><path d="M954.869,1301.69l15.467,-0l-0,-33.443c3.113,-2.812 5.222,-4.519 8.737,-4.519c4.017,-0 5.825,2.109 5.825,9.038l-0,28.924l15.566,-0l0,-30.932c0,-12.454 -4.619,-20.187 -15.466,-20.187c-6.829,0 -11.65,3.415 -15.365,6.729l0.703,-8.938l-0,-16.872l-15.467,-0l0,70.2Z" style="fill:#fff;fill-rule:nonzero;"/><path d="M1012.27,1301.69l15.466,-0l-0,-49.913l-15.466,-0l-0,49.913Zm7.733,-56.943c5.122,-0 8.737,-3.114 8.737,-8.035c0,-4.82 -3.615,-7.934 -8.737,-7.934c-5.122,0 -8.737,3.114 -8.737,7.934c-0,4.921 3.615,8.035 8.737,8.035Z" style="fill:#fff;fill-rule:nonzero;"/><path d="M1040.05,1319.97l15.466,-0l-0,-14.462l-0.502,-7.733c3.515,3.314 7.431,5.122 11.75,5.122c10.746,-0 20.889,-9.842 20.889,-27.015c0,-15.366 -7.432,-25.309 -19.483,-25.309c-5.122,0 -10.143,2.511 -13.96,6.026l-0.402,0l-1.104,-4.82l-12.654,-0l-0,68.191Zm22.998,-29.828c-2.41,0 -5.021,-0.703 -7.532,-2.912l-0,-19.785c2.711,-2.912 5.122,-4.218 8.034,-4.218c5.524,0 8.135,4.118 8.135,12.855c-0,10.144 -3.816,14.06 -8.637,14.06Z" style="fill:#fff;fill-rule:nonzero;"/></g></g></svg>