<?xml version="1.0" encoding="UTF-8" standalone="no"?><!DOCTYPE svg PUBLIC "-//W3C//DTD SVG 1.1//EN" "http://www.w3.org/Graphics/SVG/1.1/DTD/svg11.dtd"><svg width="100%" height="100%" viewBox="0 0 1032 1382" version="1.1" xmlns="http://www.w3.org/2000/svg" xmlns:xlink="http://www.w3.org/1999/xlink" xml:space="preserve" xmlns:serif="http://www.serif.com/" style="fill-rule:evenodd;clip-rule:evenodd;stroke-linejoin:round;stroke-miterlimit:2;"><g><path d="M1031.05,515.529c0,284.717 -230.812,515.525 -515.529,515.525c-284.717,0 -515.525,-230.808 -515.525,-515.525c0,-284.717 230.808,-515.529 515.525,-515.529c284.717,-0 515.529,230.812 515.529,515.529" style="fill:#c8324c;fill-rule:nonzero;"/><path d="M965.93,1235.56c-1.709,-23.083 -13.509,-43.971 -34.434,-52.975c-4.346,-3.55 -9.291,-6.529 -14.721,-8.7c-15.17,-6.075 -31.783,-6.508 -48.008,-6.575c-19.058,-0.079 -38.112,-0.121 -57.167,-0.162c-135.97,-0.288 -271.937,0.32 -407.908,1.058l-57.783,0.317c-17.421,-1.234 -34.846,-2.463 -52.275,-3.692c-29.488,-2.083 -59.238,-5.171 -88.829,-3.371c-14.892,0.908 -29.575,3.767 -44.471,4.575c-14.063,0.763 -28.113,-2.475 -42.063,0.029c-6.771,1.217 -12.246,3.579 -16.612,6.784c-2.509,1.295 -4.929,2.795 -7.221,4.541c-27.8,21.154 -30.763,64.784 -29.179,95.904c0.1,2.038 0.5,3.888 1.112,5.58c0.379,12.62 0.717,25.254 1.371,37.858c0.679,13.187 2.638,26.996 10.842,38.012c9.187,12.342 22.762,16.813 37.946,18.392c15.675,1.629 31.537,2.304 47.279,3.133c31.475,1.65 62.983,2.455 94.504,2.7c64.2,0.509 128.412,-0.891 192.6,-1.791c42.15,-0.592 84.317,-1.005 126.487,-1.546c47.146,3.871 94.455,5.871 141.788,5.871c31.658,0.004 63.317,-0.854 94.917,-2.584c15.462,-0.845 31.52,-1.025 46.808,-3.587c14.467,1.587 28.925,2.087 43.158,-0.138c29.5,-4.612 52.671,-25.154 57.246,-53.62c2.2,-13.713 1.15,-27.355 1.625,-41.142c0.517,-14.975 4.1,-29.854 2.988,-44.871" style="fill:#c8324c;fill-rule:nonzero;"/><path d="M904.654,913.501c6.909,-16.892 4.463,-18.071 4.504,-36.042c-0.904,-1.7 -3.475,-22.125 -4.504,-24.029c-19.358,-35.733 -20.208,-51.142 -35.096,-67.517c-14.887,-16.379 -10.633,-51.066 -47.641,-53.6c-37.009,-2.533 -46.154,1.488 -72.954,16.379c-26.8,14.888 -102.73,74.442 -102.73,74.442c0,0 -17.87,31.267 -5.954,46.154c11.909,14.888 55.088,47.642 72.954,62.529c17.867,14.892 66.996,49.134 83.371,50.621c7.471,0.679 31.992,3.838 57.579,6.079c17.45,-3.037 23.359,-24.57 35.455,-38.975c7.325,-8.729 3.47,-12.666 9.012,-22.525c0.167,-0.858 5.629,-12.6 6.004,-13.516" style="fill:#fff;fill-rule:nonzero;"/><path d="M215.954,528.34c-19.267,1.484 -78.35,78.184 -78.883,78.875c-3.679,21.159 -24.925,38.196 -10.729,59.434c12.187,18.233 32.287,31.166 53.141,36.862c28.584,7.817 57.646,7.471 86.617,11.096c14.279,-4.083 28.679,-7.687 43.279,-10.462c11.15,-12.98 20.917,-24.538 25.683,-29.896c11.909,-13.4 40.946,-62.904 52.113,-74.442c11.162,-11.542 -151.863,-72.954 -171.221,-71.467" style="fill:#fff;fill-rule:nonzero;"/><path d="M360.668,598.3l-23.404,15.812l-95.492,98.109c8.117,0.658 16.242,1.362 24.359,2.375c15.254,-4.359 30.658,-8.138 46.291,-10.975c5.805,-6.796 10.6,-12.404 13.509,-15.671c11.908,-13.4 40.941,-62.904 52.108,-74.446c2.663,-2.746 -4.571,-8.325 -17.371,-15.204" style="fill:#f9efe3;fill-rule:nonzero;"/><path d="M854.174,988.52c9.633,-1.675 19.842,-24.925 27.954,-29.967l-14.808,-4.866l-103.288,-61.375l-111.329,-74.221c-4.075,3.162 -6.471,5.041 -6.471,5.041c0,0 -17.866,31.267 -5.954,46.155c11.909,14.891 55.088,47.645 72.954,62.533c17.867,14.887 66.996,49.129 83.375,50.621c7.471,0.679 31.984,3.833 57.567,6.079" style="fill:#f9efe3;fill-rule:nonzero;"/><path d="M195.857,569.284c0,-0 49.875,-51.367 54.342,-56.575c4.466,-5.213 37.962,-42.434 33.5,-81.888c-0,0 -6.7,-35.733 11.166,-64.021c0,0 20.1,-53.595 20.1,-72.208c0,0 4.463,-23.821 10.421,-37.967c5.959,-14.141 11.167,-57.32 11.167,-57.32c-0,-0 13.396,-9.675 26.054,2.979c0,-0 13.083,11.775 16.558,46.358c0.234,2.313 0.425,4.721 0.563,7.238c2.233,40.2 -7.442,46.158 -8.188,50.62c-0.745,4.467 1.488,41.688 1.488,49.134c-0,-0 1.954,15.441 8.796,30.237c-0,0 6.837,21.5 10.558,38.621c0,0 4.242,29.321 16.379,30.521l107.942,-3.35c-0,-0 -57.696,74.071 -69.604,88.587c-11.913,14.517 -24.567,32.013 -24.567,32.013c0,-0 -34.242,30.521 -46.529,39.079c-12.279,8.563 -36.104,35.733 -36.104,35.733c-0,0 -92.067,51.442 -144.042,-77.791" style="fill:#724d2f;fill-rule:nonzero;"/><path d="M334.566,200.546c-0,-0 4.466,-4.963 11.666,-0.496c0,-0 11.663,4.962 10.667,25.558c0,0 -2.729,20.1 -5.954,22.579c-3.229,2.484 -17.867,1.988 -19.108,-0.991c-1.238,-2.979 -0.492,-27.046 -0.25,-28.288c0.25,-1.241 0.991,-17.121 2.979,-18.362" style="fill:#010b50;fill-rule:nonzero;"/><path d="M579.235,168.412c0,0 10.421,4.096 17.121,4.096c6.7,-0 32.384,1.487 34.988,10.05c2.608,8.558 -6.329,24.192 -12.279,26.796c-5.959,2.608 -33.134,13.029 -39.084,11.166c-5.958,-1.858 -3.354,-53.595 -3.354,-53.595l2.608,1.487Z" style="fill:#724d2f;fill-rule:nonzero;"/><path d="M581.84,226.105l36.85,35.362c-0,0 11.537,12.279 7.445,29.775l-3.354,40.571c0,-0 10.425,13.029 7.817,24.567l-4.463,31.637c0,0 11.167,14.517 -1.491,38.338c-0,-0 -9.679,28.658 -25.684,29.033c0,-0 -17.491,-3.721 -13.029,-22.704l3.725,-8.934c0,0 -10.421,-5.958 -4.837,-41.316c-0,-0 6.325,-32.384 5.958,-36.104c-0.375,-3.721 0,-5.955 0,-5.955c0,0 -9.683,-7.445 -9.308,-31.637l2.229,-32.013l-1.858,-50.62Z" style="fill:#724d2f;fill-rule:nonzero;"/><path d="M615.213,379.705c0,-0 -15.633,-6.7 -23.325,15.633c0,-0 -1.983,17.617 1.492,23.075l18.362,5.462c0,0 9.18,-29.283 9.43,-32.508c0.245,-3.225 -0,-8.933 -5.959,-11.662" style="fill:#010b50;fill-rule:nonzero;"/><path d="M601.814,435.785l3.225,-4.963c0,0 7.2,-0.496 8.683,-3.971c1.492,-3.475 2.484,-4.716 3.23,-3.721c0.745,0.992 1.487,9.675 1.487,9.675l-3.971,11.167c0,0 -7.937,1.738 -12.654,-8.187" style="fill:#010b50;fill-rule:nonzero;"/><path d="M596.854,306.007c0,-0 -0.25,-8.684 5.954,-10.421c0,-0 19.355,-4.221 19.109,9.925c-0,-0 -1.492,30.025 -2.734,32.258c-1.237,2.233 -10.42,4.713 -16.375,-1.492c-5.954,-6.2 -5.954,-23.57 -5.954,-30.27" style="fill:#010b50;fill-rule:nonzero;"/><path d="M781.718,606.257c-1.488,2.483 -2.98,7.446 -7.938,3.971c-4.967,-3.475 -6.95,-19.854 -6.95,-19.854l-0.996,-18.359c0,0 13.4,15.384 14.396,19.355c0.992,3.97 2.975,12.408 1.488,14.887m-69.48,21.838c-0.495,-3.475 -3.97,-21.342 -3.97,-21.342c-0,-0 6.95,6.95 7.445,14.392c0.496,7.445 -2.979,10.42 -3.475,6.95m-66.008,20.841c-20.096,-66.996 -38.708,-88.583 -38.708,-88.583c39.454,34.242 48.391,87.842 48.391,87.842l-9.683,0.741Zm189.579,-62.033l-33.246,-41.688c0,0 -15.883,-17.37 -38.216,-18.858c-0,0 -32.75,-9.429 -40.696,1.983l-36.721,-24.812c0,-0 -29.279,-8.438 -50.621,3.471c0,-0 -23.821,-22.825 -59.554,-0.992c0,0 -29.779,-37.717 -37.225,-42.183c0,-0 -10.217,-12.484 -19.25,-6.488c0,0 -17.867,20.096 0,54.713c0,-0 23.446,50.246 26.796,61.408c-0,0 -26.796,-10.046 -25.683,20.1c-0,0 5.583,20.1 2.237,37.963c0,-0 1.113,13.4 3.346,31.266c-0,0 2.233,24.563 -3.346,48.013c0,-0 -2.237,21.216 20.096,44.662c-0,0 35.729,25.684 41.312,37.963c5.584,12.283 41.317,29.033 46.9,39.083c5.584,10.05 25.68,29.029 43.546,21.213c17.863,-7.817 51.363,-23.446 58.059,-29.03c6.704,-5.583 51.366,-30.15 52.479,-36.845c1.121,-6.7 21.216,-15.634 17.866,-26.8c-3.345,-11.167 -22.329,-26.796 -18.979,-31.263c3.346,-4.467 14.513,-43.55 17.867,-46.9c3.346,-3.35 17.862,-33.496 17.862,-33.496c0,0 12.696,-22.283 14.68,-27.246c1.983,-4.962 9.925,-19.854 0.491,-35.237" style="fill:#724d2f;fill-rule:nonzero;"/><path d="M523.156,579.955c0,-0 11.663,10.421 17.367,12.408c-0,0 5.462,4.467 9.929,15.384c0,-0 5.454,12.408 3.967,13.895c-1.488,1.488 -8.934,5.459 -16.375,2.484c-7.446,-2.979 -9.679,-8.688 -10.175,-9.929c-0.496,-1.238 -12.904,-23.571 -4.713,-34.242" style="fill:#010b50;fill-rule:nonzero;"/><path d="M520.279,457.334c0,0 -7.05,4.754 -8.291,11.95c-0,0 -0,6.204 5.212,17.617c0,-0 6.7,11.912 11.163,12.654c-0,-0 5.712,1.737 13.4,-2.729c-0,-0 11.916,-6.45 11.416,-8.684c0,0 -1.487,-4.962 -7.196,-13.65c0,0 -14.437,-28.612 -25.704,-17.158" style="fill:#010b50;fill-rule:nonzero;"/><path d="M722.721,527.597c-0,-0 10.237,-9.121 23.637,-2.421c0,-0 8.005,2.791 6.7,5.771l-8.933,11.166l-21.404,-14.516Z" style="fill:#010b50;fill-rule:nonzero;"/><path d="M352.791,56.482c-0,-0 5.583,-23.446 34.616,-23.446l150.734,-12.284c-0,0 33.496,0 33.496,43.546l21.216,356.188c0,-0 2.234,27.916 -32.379,29.033l-139.571,6.7c0,0 -39.079,10.046 -39.079,-70.346l-29.033,-329.391Z" style="fill:#8b1a38;fill-rule:nonzero;"/><path d="M583.044,442.507c2.837,-6.466 2.366,-12.341 2.366,-12.341l-21.212,-356.192c-0,-43.546 -33.5,-43.546 -33.5,-43.546l-150.738,12.284c-11.92,-0 -19.879,3.95 -25.129,8.608c-1.521,3.004 -2.041,5.162 -2.041,5.162l29.033,329.392c-0,80.392 39.079,70.346 39.079,70.346l139.571,-6.7c10.617,-0.346 17.762,-3.208 22.571,-7.013" style="fill:#fff;fill-rule:nonzero;"/><path d="M369.539,97.795l178.441,-14.812l18.963,310.358l-166.138,12.629l-31.266,-308.175Z" style="fill:#e8c6b7;fill-rule:nonzero;"/><path d="M455.594,155.414c0,-0 -1.816,20.904 -4.541,34.533c-2.725,13.633 -15.45,59.075 -15.45,59.075c-0,0 -11.817,42.713 17.266,45.442c29.084,2.725 66.346,2.725 63.617,-31.809c-2.725,-34.537 -43.621,-83.612 -43.621,-83.612l-17.271,-23.629Z" style="fill:#cb304a;fill-rule:nonzero;"/><g><path d="M204.151,1268.95c1.707,-6.427 3.414,-14.16 5.021,-20.99l0.402,0c1.707,6.83 3.415,14.563 5.122,20.99l1.406,5.624l-13.357,0l1.406,-5.624Zm-24.204,32.74l15.969,-0l3.816,-15.064l19.383,-0l3.816,15.064l16.47,-0l-20.387,-65.379l-18.679,-0l-20.388,65.379Z" style="fill:#fff;fill-rule:nonzero;"/><path d="M257.278,1302.89c5.624,0 10.143,-2.511 14.261,-6.226l0.402,-0l1.104,5.021l12.654,-0l0,-28.321c0,-15.667 -7.231,-22.797 -20.086,-22.797c-7.833,-0 -14.963,2.51 -21.491,6.527l5.423,10.043c5.021,-2.812 9.038,-4.218 13.056,-4.218c5.121,0 7.231,2.411 7.632,6.528c-19.684,2.009 -27.819,7.733 -27.819,18.278c0,8.336 5.725,15.165 14.864,15.165Zm5.323,-12.051c-3.415,-0 -5.323,-1.406 -5.323,-4.319c-0,-3.515 3.013,-6.226 12.955,-7.532l0,7.934c-2.41,2.41 -4.519,3.917 -7.632,3.917Z" style="fill:#fff;fill-rule:nonzero;"/><path d="M298.253,1301.69l15.466,-0l0,-28.522c2.611,-6.628 7.131,-9.039 10.846,-9.039c2.21,0 3.315,0.201 5.122,0.603l2.913,-13.156c-1.406,-0.703 -3.114,-1.004 -6.026,-1.004c-5.021,-0 -10.545,3.113 -14.161,9.842l-0.401,-0l-1.105,-8.637l-12.654,-0l-0,49.913Z" style="fill:#fff;fill-rule:nonzero;"/><path d="M359.063,1302.89c12.754,0 24.505,-9.641 24.505,-26.212c-0,-16.571 -11.751,-26.111 -24.505,-26.111c-12.654,-0 -24.404,9.54 -24.404,26.111c-0,16.571 11.75,26.212 24.404,26.212Zm-0,-12.553c-5.825,-0 -8.537,-5.323 -8.537,-13.659c0,-8.235 2.712,-13.658 8.537,-13.658c5.825,-0 8.536,5.423 8.536,13.658c0,8.336 -2.711,13.659 -8.536,13.659Z" style="fill:#fff;fill-rule:nonzero;"/><path d="M410.834,1322.68c17.374,-0 28.321,-7.432 28.321,-17.977c0,-9.039 -6.93,-12.755 -19.282,-12.755l-7.934,0c-5.323,0 -7.332,-1.104 -7.332,-3.515c0,-1.607 0.503,-2.41 1.607,-3.414c2.21,0.602 4.218,0.904 5.926,0.904c11.047,-0 19.885,-5.122 19.885,-16.772c-0,-2.41 -0.703,-4.72 -1.507,-6.126l7.834,-0l-0,-11.248l-18.379,-0c-2.31,-0.804 -5.021,-1.205 -7.833,-1.205c-10.847,-0 -20.89,5.925 -20.89,18.077c0,5.825 3.214,10.444 6.729,12.855l0,0.401c-3.214,2.31 -5.523,5.926 -5.523,9.441c-0,4.117 1.908,6.729 4.519,8.536l-0,0.402c-4.62,2.41 -7.03,5.724 -7.03,9.842c-0,8.938 9.34,12.554 20.889,12.554Zm1.306,-46.097c-3.616,-0 -6.327,-2.712 -6.327,-7.934c-0,-5.122 2.611,-7.733 6.327,-7.733c3.716,-0 6.327,2.611 6.327,7.733c-0,5.222 -2.611,7.934 -6.327,7.934Zm1.205,36.455c-6.428,0 -10.646,-1.807 -10.646,-5.423c0,-1.607 0.804,-3.013 2.411,-4.419c1.506,0.402 3.414,0.603 7.03,0.603l4.82,0c4.72,0 7.332,0.603 7.332,3.615c-0,3.214 -4.62,5.624 -10.947,5.624Z" style="fill:#fff;fill-rule:nonzero;"/><path d="M451.91,1320.97c11.951,0 17.273,-6.327 22.194,-19.182l17.174,-50.013l-14.864,-0l-5.724,20.688c-1.306,4.72 -2.31,9.44 -3.415,14.161l-0.401,-0c-1.306,-4.921 -2.411,-9.541 -3.817,-14.161l-6.829,-20.688l-15.566,-0l19.181,48.507l-0.703,2.41c-1.205,3.616 -3.615,6.126 -8.436,6.126c-1.004,0 -1.707,-0.1 -3.314,-0.502l-2.711,11.449c2.008,0.804 4.017,1.205 7.231,1.205Z" style="fill:#fff;fill-rule:nonzero;"/><path d="M508.752,1302.89c5.625,0 10.144,-2.511 14.261,-6.226l0.402,-0l1.105,5.021l12.654,-0l-0,-28.321c-0,-15.667 -7.231,-22.797 -20.086,-22.797c-7.833,-0 -14.964,2.51 -21.492,6.527l5.423,10.043c5.022,-2.812 9.039,-4.218 13.056,-4.218c5.122,0 7.231,2.411 7.633,6.528c-19.684,2.009 -27.819,7.733 -27.819,18.278c-0,8.336 5.724,15.165 14.863,15.165Zm5.323,-12.051c-3.414,-0 -5.323,-1.406 -5.323,-4.319c0,-3.515 3.013,-6.226 12.956,-7.532l-0,7.934c-2.41,2.41 -4.519,3.917 -7.633,3.917Z" style="fill:#fff;fill-rule:nonzero;"/><path d="M592.543,1302.89c15.768,0 24.907,-9.541 24.907,-20.487c-0,-9.139 -4.821,-14.563 -12.956,-17.776l-8.134,-3.315c-5.825,-2.309 -9.943,-3.615 -9.943,-7.431c0,-3.415 3.113,-5.323 7.934,-5.323c4.118,-0 8.637,1.707 13.056,4.821l8.134,-10.144c-5.624,-5.222 -13.357,-8.135 -21.19,-8.135c-13.859,0 -23.701,8.838 -23.701,19.785c-0,9.44 6.327,15.165 13.256,17.876l8.336,3.616c5.724,2.31 9.239,3.515 9.239,7.331c0,3.515 -2.711,5.725 -8.637,5.725c-5.523,-0 -11.85,-2.21 -16.47,-6.227l-8.235,10.143c6.829,6.528 15.566,9.541 24.404,9.541Z" style="fill:#fff;fill-rule:nonzero;"/><path d="M639.544,1302.89c5.624,0 10.143,-2.511 14.261,-6.226l0.402,-0l1.104,5.021l12.655,-0l-0,-28.321c-0,-15.667 -7.231,-22.797 -20.086,-22.797c-7.834,-0 -14.964,2.51 -21.492,6.527l5.423,10.043c5.021,-2.812 9.039,-4.218 13.056,-4.218c5.122,0 7.231,2.411 7.632,6.528c-19.684,2.009 -27.818,7.733 -27.818,18.278c-0,8.336 5.724,15.165 14.863,15.165Zm5.323,-12.051c-3.415,-0 -5.323,-1.406 -5.323,-4.319c0,-3.515 3.013,-6.226 12.955,-7.532l0,7.934c-2.41,2.41 -4.519,3.917 -7.632,3.917Z" style="fill:#fff;fill-rule:nonzero;"/><path d="M693.173,1302.89c5.624,0 10.144,-2.511 14.261,-6.226l0.402,-0l1.105,5.021l12.654,-0l-0,-28.321c-0,-15.667 -7.231,-22.797 -20.086,-22.797c-7.834,-0 -14.964,2.51 -21.492,6.527l5.423,10.043c5.022,-2.812 9.039,-4.218 13.056,-4.218c5.122,0 7.231,2.411 7.633,6.528c-19.685,2.009 -27.819,7.733 -27.819,18.278c-0,8.336 5.724,15.165 14.863,15.165Zm5.323,-12.051c-3.415,-0 -5.323,-1.406 -5.323,-4.319c0,-3.515 3.013,-6.226 12.956,-7.532l-0,7.934c-2.411,2.41 -4.52,3.917 -7.633,3.917Z" style="fill:#fff;fill-rule:nonzero;"/><path d="M753.732,1302.89c4.921,0 8.737,-1.004 11.349,-2.008l-2.411,-10.847c-1.305,0.502 -3.013,0.703 -4.62,0.703c-3.715,0 -6.327,-2.109 -6.327,-7.733l0,-19.081l11.751,-0l-0,-12.152l-11.751,-0l0,-15.266l-12.854,0l-1.808,15.266l-7.633,0.502l0,11.65l6.729,-0l-0,19.282c-0,11.75 5.122,19.684 17.575,19.684Z" style="fill:#fff;fill-rule:nonzero;"/><path d="M772.663,1301.69l15.466,-0l0,-33.443c3.113,-2.812 5.222,-4.519 8.737,-4.519c4.018,-0 5.825,2.109 5.825,9.038l0,28.924l15.567,-0l-0,-30.932c-0,-12.453 -4.62,-20.186 -15.466,-20.186c-6.83,-0 -11.65,3.414 -15.366,6.728l0.703,-8.938l0,-16.872l-15.466,0l-0,70.2Z" style="fill:#fff;fill-rule:nonzero;"/><path d="M829.958,1301.69l15.466,-0l-0,-49.913l-15.466,-0l-0,49.913Zm7.733,-56.943c5.122,-0 8.737,-3.114 8.737,-8.035c0,-4.82 -3.615,-7.934 -8.737,-7.934c-5.122,0 -8.738,3.114 -8.738,7.934c0,4.921 3.616,8.035 8.738,8.035Z" style="fill:#fff;fill-rule:nonzero;"/></g></g></svg>