<?xml version="1.0" encoding="UTF-8" standalone="no"?><!DOCTYPE svg PUBLIC "-//W3C//DTD SVG 1.1//EN" "http://www.w3.org/Graphics/SVG/1.1/DTD/svg11.dtd"><svg width="100%" height="100%" viewBox="0 0 1032 1382" version="1.1" xmlns="http://www.w3.org/2000/svg" xmlns:xlink="http://www.w3.org/1999/xlink" xml:space="preserve" xmlns:serif="http://www.serif.com/" style="fill-rule:evenodd;clip-rule:evenodd;stroke-linejoin:round;stroke-miterlimit:2;"><g><path d="M1031.05,515.529c0,284.717 -230.808,515.525 -515.529,515.525c-284.717,0 -515.525,-230.808 -515.525,-515.525c-0,-284.717 230.808,-515.529 515.525,-515.529c284.721,-0 515.529,230.812 515.529,515.529" style="fill:#c8324c;fill-rule:nonzero;"/><g><path d="M78.165,1306.86c1.058,23.083 8.375,43.971 21.346,52.975c2.691,3.55 5.758,6.529 9.125,8.7c9.4,6.075 19.704,6.504 29.762,6.575c11.813,0.079 23.625,0.121 35.438,0.162c84.287,0.288 484.883,-0.32 569.171,-1.058l35.82,-0.317c10.8,1.23 21.605,2.463 32.409,3.692c18.279,2.083 36.721,5.171 55.066,3.367c9.234,-0.904 18.334,-3.763 27.567,-4.571c8.717,-0.763 17.429,2.475 26.075,-0.029c4.2,-1.217 7.592,-3.579 10.3,-6.784c1.558,-1.295 3.054,-2.795 4.475,-4.541c17.233,-21.154 19.071,-64.784 18.092,-95.904c-0.067,-2.038 -0.313,-3.888 -0.692,-5.58c-0.237,-12.62 -0.446,-25.254 -0.85,-37.858c-0.421,-13.187 -1.637,-26.996 -6.721,-38.012c-5.696,-12.342 -14.112,-16.813 -23.521,-18.392c-9.72,-1.629 -19.55,-2.304 -29.312,-3.133c-19.508,-1.65 -39.046,-2.455 -58.583,-2.7c-39.796,-0.505 143.079,0.895 103.287,1.791c-26.129,0.592 -52.267,1.009 -78.408,1.546c-29.229,-3.871 -243.259,-5.871 -272.6,-5.871c-19.625,-0.004 -393.538,0.854 -413.129,2.584c-9.584,0.845 -19.542,1.025 -29.013,3.587c-8.971,-1.592 -17.933,-2.087 -26.758,0.138c-18.292,4.612 -32.65,25.154 -35.484,53.625c-1.366,13.708 -0.716,27.35 -1.012,41.137c-0.321,14.975 -2.542,29.854 -1.85,44.871" style="fill:#c8324c;fill-rule:nonzero;"/><path d="M168.578,63.818l268.263,70.596c28.216,7.425 48.067,32.696 48.596,61.871l9.504,524.1c0.5,27.708 -16.563,52.704 -42.55,62.325l-288.004,106.629c-42.963,15.904 -88.5,-16.292 -87.829,-62.096l10.237,-701.325c0.621,-42.35 40.821,-72.879 81.783,-62.1" style="fill:#cb304a;fill-rule:nonzero;"/><path d="M168.578,63.818l268.263,70.596c28.216,7.425 48.067,32.696 48.596,61.871l9.504,524.1c0.5,27.708 -16.563,52.704 -42.55,62.325l-288.004,106.629c-42.963,15.904 -88.5,-16.292 -87.829,-62.096l10.237,-701.325c0.621,-42.35 40.821,-72.879 81.783,-62.1" style="fill:#cb304a;fill-rule:nonzero;"/><path d="M141.664,837.656c-2.388,0 -4.904,-1.104 -6.729,-2.958c-2.646,-2.683 -2.605,-5.663 -2.588,-6.642l10.238,-701.325c0.091,-6.341 5.591,-9.3 9.279,-9.3c0.816,0 1.637,0.117 2.516,0.346l268.263,70.596c4.05,1.062 6.929,4.733 7.008,8.921l9.5,524.1c0.075,3.991 -2.391,7.604 -6.137,8.991l-288,106.625c-1.175,0.434 -2.271,0.646 -3.35,0.646" style="fill:#fff;fill-rule:nonzero;"/><path d="M481.066,355.845c-2.675,-1.913 -20.646,-3.442 -22.937,0.766c-2.296,4.204 -1.534,23.704 -1.15,25.617c0.383,1.908 9.941,13.379 13.383,15.675c3.442,2.292 8.029,6.117 9.558,2.675c1.53,-3.442 3.825,-8.029 3.825,-8.029l3.055,-8.413l3.825,-4.971l0.383,-12.233" style="fill:#442d19;fill-rule:nonzero;"/><path d="M440.539,319.14c-0,-0 42.058,24.854 45.116,26c3.059,1.146 11.85,5.733 14.525,9.558c2.68,3.821 36.325,70.35 37.471,72.642c1.15,2.296 1.913,10.708 1.913,10.708c-0,0 -30.204,29.821 -29.438,28.671c0.763,-1.146 -1.15,-30.583 -3.825,-36.7c-2.675,-6.121 -5.354,-17.587 -17.204,-24.854c-11.854,-7.263 -21.412,-13.763 -21.412,-13.763c-0,0 -31.734,-11.087 -29.055,-15.295c2.675,-4.205 7.642,-4.588 12.234,-3.821c4.587,0.762 13.762,5.35 17.971,4.971c4.204,-0.384 15.675,-3.825 12.612,-10.325c-3.058,-6.5 -16.821,-18.734 -16.821,-18.734c0,0 -21.791,-15.675 -22.558,-17.204c-0.763,-1.529 -9.558,-7.267 -1.529,-11.854" style="fill:#5e3f23;fill-rule:nonzero;"/><path d="M515.327,443.01c0,-0 -36.383,42.271 -34.779,56.717c1.604,14.45 15.517,26.754 19.796,31.57c4.283,4.817 46.016,61.534 119.325,43.342c73.304,-18.192 53.504,-40.667 53.504,-40.667l17.125,-72.233c-0,0 4.279,-24.617 2.137,-24.079c-2.137,0.533 -51.366,57.254 -68.487,57.254c-17.125,0 -39.596,10.7 -57.254,-11.775c-17.659,-22.471 -25.684,-53.504 -25.684,-53.504c0,-0 -19.262,7.487 -25.683,13.375" style="fill:#f9efe3;fill-rule:nonzero;"/><path d="M763.468,825.638c13.345,-4.367 23.179,-13.442 30.937,-24.892c4.542,-6.704 8.592,-14.054 11.992,-21.788c2.454,-89.358 6.846,-323.762 -13.9,-344.508c-3.784,-3.783 -17.125,-44.946 -59.929,-24.612c-42.805,20.329 -78.121,41.733 -89.892,81.329c-11.771,39.596 -35.317,186.208 -37.454,233.291c-2.142,47.088 -20.646,73.717 21.091,68.367c29.955,-3.842 70.934,23.775 102.363,36.9c11.717,-0.525 23.612,-0.429 34.792,-4.087" style="fill:#fff;fill-rule:nonzero;"/><path d="M679.774,267.148c0,0 -13.554,4.992 -17.479,22.117c0,0 -2.854,38.883 -6.062,45.658c-0,0 -7.85,9.634 -7.85,11.417c-0,1.783 0.358,2.854 5.708,3.925c5.35,1.067 5.708,3.921 4.637,7.133c-1.07,3.209 -2.029,6.409 -0.712,8.563c2.371,3.887 4.279,6.062 2.85,7.133c-1.425,1.071 -1.425,6.063 -0.708,8.204c0.708,2.138 1.425,9.988 2.85,12.484c1.429,2.496 7.85,4.283 18.191,3.925c10.346,-0.359 16.767,-3.567 24.971,19.621c8.204,23.183 4.996,24.254 6.067,24.254c1.066,-0 -1.071,6.779 6.775,6.421c7.85,-0.355 28.896,-2.496 36.741,-7.492c7.85,-4.992 19.98,-11.413 20.692,-18.904c0.713,-7.492 1.071,-6.421 -2.496,-14.267c-3.566,-7.85 -6.779,-22.475 -6.779,-22.475l-0.358,-23.542l-3.921,-43.166l-16.054,-21.046l-7.85,-8.204c-0,-0 9.991,-0.713 -13.909,-9.275l-23.9,-8.559" style="fill:#5e3f23;fill-rule:nonzero;"/><path d="M681.2,279.812c0,0 -10.7,-15.517 3.213,-26.221c13.908,-10.7 25.146,-16.05 36.917,-17.121c11.775,-1.07 31.57,-0.537 34.783,0c3.208,0.534 -9.1,-13.912 -2.679,-17.12c6.421,-3.213 12.841,-2.68 14.45,-10.705c1.604,-8.025 2.675,-17.658 19.262,-16.587c16.588,1.071 31.567,-1.071 35.313,18.729c3.746,19.796 9.096,37.454 -22.471,49.229c-0,0 24.612,39.059 17.121,72.234c-0,-0 -4.279,40.129 -51.367,48.158c0,-0 -15.517,-6.958 -16.054,-12.842c-0.533,-5.887 -8.025,-15.521 -8.025,-15.521c-0,0 -19.796,-26.216 -25.146,-31.566c-5.354,-5.35 -17.658,-17.659 -18.729,-20.334c-1.071,-2.675 -16.588,-20.333 -16.588,-20.333" style="fill:#010b50;fill-rule:nonzero;"/><path d="M718.924,325.829c0,-0 7.221,1.337 10.167,-0.534c2.941,-1.875 9.971,-8.75 11.771,0.267c0.266,1.338 3.479,21.133 -6.688,24.879c-10.167,3.746 -10.167,2.142 -10.167,2.142l-5.35,-10.167" style="fill:#5e3f23;fill-rule:nonzero;"/><path d="M318.693,592.045l65.545,-26.505l35.309,33.225l-51.4,59.225l-49.496,-37.225c-0,0 -21.058,-16.141 -16.271,-19.512c4.792,-3.371 16.313,-9.208 16.313,-9.208" style="fill:#cb304a;fill-rule:nonzero;"/><path d="M886.104,741.937c-0,-0 36.854,17.62 57.812,-10.25c0,-0 45.996,-71.13 -53.725,-69.58" style="fill:#cb304a;fill-rule:nonzero;"/><path d="M903.117,674.764l-522.074,-90.866l3.195,-18.359l522.074,90.867l-3.195,18.358Z" style="fill:#010b50;"/><path d="M899.895,693.287l-522.075,-90.863l3.195,-18.362l522.075,90.863l-3.195,18.362Z" style="fill:#1f2d72;"/><path d="M896.67,711.81l-522.075,-90.862l3.195,-18.363l522.075,90.863l-3.195,18.362Z" style="fill:#010b50;"/><path d="M893.445,730.334l-522.075,-90.863l3.196,-18.362l522.075,90.862l-3.196,18.363Z" style="fill:#1f2d72;"/><path d="M890.223,748.856l-522.075,-90.867l3.195,-18.358l522.075,90.866l-3.196,18.359Z" style="fill:#010b50;"/><path d="M764.672,450.501c0,0 -37.454,8.563 -48.158,35.317c-0,-0 -23.542,163.729 -32.104,178.712c-8.559,14.984 -71.7,125.209 -79.192,139.121c-7.488,13.913 13.912,42.804 39.596,33.175c25.683,-9.633 57.791,-52.437 66.35,-64.208c8.562,-11.775 50.296,-84.542 51.366,-90.963c1.071,-6.42 59.93,-204.4 2.142,-231.154" style="fill:#f9efe3;fill-rule:nonzero;"/><path d="M375.663,408.663c-0,64.25 -40.421,116.338 -90.284,116.338c-49.862,-0 -90.283,-52.088 -90.283,-116.338c-0,-64.25 40.421,-116.337 90.283,-116.337c49.863,-0 90.284,52.087 90.284,116.337" style="fill:#010b50;fill-rule:nonzero;"/><path d="M293.755,292.829l-8.379,115.834l90.184,-5.484c-2.096,-58.104 -37.263,-105.066 -81.805,-110.35" style="fill:#1f2d72;fill-rule:nonzero;"/><path d="M259.281,520.058c8.262,3.212 17.021,4.942 26.096,4.942c28.175,-0 53.329,-16.63 69.887,-42.684l-69.887,-73.654c-0,0 -18.621,77.579 -26.096,111.396" style="fill:#cb304a;fill-rule:nonzero;"/><g><path d="M204.854,1301.69l15.567,-0l-0,-52.324l17.776,0l-0,-13.056l-51.119,0l0,13.056l17.776,0l0,52.324Z" style="fill:#fff;fill-rule:nonzero;"/><path d="M246.733,1301.69l15.466,-0l0,-33.443c3.114,-2.812 5.223,-4.52 8.738,-4.52c4.017,0 5.824,2.109 5.824,9.039l0,28.924l15.567,-0l-0,-30.933c-0,-12.453 -4.62,-20.186 -15.466,-20.186c-6.829,0 -11.65,3.415 -15.366,6.729l0.703,-8.938l0,-16.872l-15.466,-0l0,70.2Z" style="fill:#fff;fill-rule:nonzero;"/><path d="M326.675,1302.9c5.925,-0 12.754,-1.908 17.977,-5.624l-5.022,-9.34c-3.515,2.008 -7.13,3.113 -10.746,3.113c-6.327,0 -11.047,-2.912 -12.453,-9.641l29.426,-0c0.301,-1.406 0.602,-4.017 0.602,-6.829c0,-13.558 -7.03,-24.003 -21.492,-24.003c-11.951,0 -23.6,9.943 -23.6,26.112c-0,16.671 11.047,26.212 25.308,26.212Zm-10.445,-31.937c1.004,-5.825 4.72,-8.637 9.139,-8.637c5.624,0 7.834,3.716 7.834,8.637l-16.973,0Z" style="fill:#fff;fill-rule:nonzero;"/><path d="M377.991,1301.69l15.667,-0l-0,-21.693l7.733,-0c13.758,-0 25.709,-6.829 25.709,-22.496c0,-16.069 -11.75,-21.191 -26.111,-21.191l-22.998,0l-0,65.38Zm15.667,-34.046l-0,-18.981l6.427,0c7.633,0 11.75,2.31 11.75,8.838c0,6.528 -3.615,10.143 -11.348,10.143l-6.829,0Z" style="fill:#fff;fill-rule:nonzero;"/><path d="M458.033,1302.9c5.925,-0 12.754,-1.908 17.976,-5.624l-5.021,-9.34c-3.515,2.008 -7.13,3.113 -10.746,3.113c-6.327,0 -11.047,-2.912 -12.453,-9.641l29.426,-0c0.301,-1.406 0.602,-4.017 0.602,-6.829c0,-13.558 -7.03,-24.003 -21.492,-24.003c-11.951,0 -23.601,9.943 -23.601,26.112c0,16.671 11.048,26.212 25.309,26.212Zm-10.445,-31.937c1.004,-5.825 4.72,-8.637 9.139,-8.637c5.624,0 7.834,3.716 7.834,8.637l-16.973,0Z" style="fill:#fff;fill-rule:nonzero;"/><path d="M487.408,1301.69l15.466,-0l0,-28.522c2.611,-6.629 7.131,-9.039 10.847,-9.039c2.209,0 3.314,0.201 5.121,0.603l2.913,-13.156c-1.406,-0.703 -3.113,-1.005 -6.026,-1.005c-5.021,0 -10.545,3.114 -14.16,9.842l-0.402,0l-1.105,-8.637l-12.654,0l0,49.914Z" style="fill:#fff;fill-rule:nonzero;"/><path d="M527.73,1301.69l15.467,-0l-0,-49.914l-15.467,0l0,49.914Zm7.734,-56.944c5.121,0 8.737,-3.113 8.737,-8.034c-0,-4.821 -3.616,-7.934 -8.737,-7.934c-5.122,0 -8.738,3.113 -8.738,7.934c0,4.921 3.616,8.034 8.738,8.034Z" style="fill:#fff;fill-rule:nonzero;"/><path d="M577.091,1302.9c12.755,-0 24.505,-9.641 24.505,-26.212c0,-16.571 -11.75,-26.112 -24.505,-26.112c-12.654,0 -24.404,9.541 -24.404,26.112c0,16.571 11.75,26.212 24.404,26.212Zm0,-12.554c-5.824,0 -8.536,-5.323 -8.536,-13.658c-0,-8.235 2.712,-13.659 8.536,-13.659c5.825,0 8.537,5.424 8.537,13.659c-0,8.335 -2.712,13.658 -8.537,13.658Z" style="fill:#fff;fill-rule:nonzero;"/><path d="M628.963,1302.9c4.72,-0 9.641,-2.511 13.156,-6.026l0.302,0l1.104,4.821l12.755,-0l-0,-70.2l-15.567,-0l0,16.771l0.502,7.432c-3.213,-3.113 -6.527,-5.122 -12.051,-5.122c-10.344,0 -20.588,9.842 -20.588,26.112c-0,16.269 8.034,26.212 20.387,26.212Zm4.118,-12.755c-5.323,0 -8.537,-4.017 -8.537,-13.558c0,-9.34 3.917,-13.357 8.336,-13.357c2.511,0 5.423,0.804 7.833,2.913l0,19.885c-2.31,3.113 -4.619,4.117 -7.632,4.117Z" style="fill:#fff;fill-rule:nonzero;"/><path d="M690.32,1301.69l41.075,-0l0,-13.056l-25.409,-0l0,-52.324l-15.666,0l-0,65.38Z" style="fill:#fff;fill-rule:nonzero;"/><path d="M753.841,1302.9c5.624,-0 10.143,-2.511 14.261,-6.227l0.402,0l1.104,5.022l12.654,-0l0,-28.321c0,-15.667 -7.23,-22.798 -20.085,-22.798c-7.834,0 -14.964,2.511 -21.492,6.528l5.423,10.043c5.021,-2.812 9.039,-4.218 13.056,-4.218c5.122,0 7.231,2.41 7.632,6.528c-19.684,2.008 -27.819,7.733 -27.819,18.278c0,8.336 5.725,15.165 14.864,15.165Zm5.323,-12.052c-3.415,0 -5.323,-1.406 -5.323,-4.318c-0,-3.515 3.013,-6.227 12.955,-7.532l0,7.934c-2.41,2.41 -4.519,3.916 -7.632,3.916Z" style="fill:#fff;fill-rule:nonzero;"/><path d="M821.53,1302.9c10.746,-0 20.889,-9.842 20.889,-27.016c0,-15.365 -7.532,-25.308 -19.583,-25.308c-4.62,0 -9.139,2.009 -12.855,5.323l0.301,-7.532l0,-16.872l-15.466,-0l0,70.2l12.152,-0l1.205,-5.323l0.402,-0c3.917,4.318 8.436,6.528 12.955,6.528Zm-3.716,-12.755c-2.41,0 -5.021,-0.703 -7.532,-2.912l0,-19.785c2.712,-2.912 5.122,-4.218 8.034,-4.218c5.524,0 8.135,4.118 8.135,12.855c0,10.144 -3.816,14.06 -8.637,14.06Z" style="fill:#fff;fill-rule:nonzero;"/></g></g></g></svg>